<svg width="24" height="24" viewBox="0 0 24 24" fill="none" xmlns="http://www.w3.org/2000/svg">
<g id="Stockholm-icons / Devices / Camera">
<path id="Combined Shape" fill-rule="evenodd" clip-rule="evenodd" d="M5 7C3.89545 7 3 7.89545 3 9V17C3 18.1046 3.89545 19 5 19H19C20.1046 19 21 18.1046 21 17V9C21 7.89545 20.1046 7 19 7H5ZM8 13C8 15.2092 9.79083 17 12 17C14.2092 17 16 15.2092 16 13C16 10.7908 14.2092 9 12 9C9.79083 9 8 10.7908 8 13Z" fill="black"/>
<rect id="Rectangle" opacity="0.3" x="9" y="4" width="6" height="2" rx="1" fill="black"/>
<path id="Oval 2" opacity="0.3" fill-rule="evenodd" clip-rule="evenodd" d="M12 15C13.1046 15 14 14.1046 14 13C14 11.8954 13.1046 11 12 11C10.8954 11 10 11.8954 10 13C10 14.1046 10.8954 15 12 15Z" fill="black"/>
</g>
</svg>
