<?xml version="1.0" standalone="no"?><!DOCTYPE svg PUBLIC "-//W3C//DTD SVG 1.1//EN" "http://www.w3.org/Graphics/SVG/1.1/DTD/svg11.dtd"><svg t="1640676436355" class="icon" viewBox="0 0 1024 1024" version="1.1" xmlns="http://www.w3.org/2000/svg" p-id="1822" xmlns:xlink="http://www.w3.org/1999/xlink" width="200" height="200"><defs><style type="text/css">@font-face { font-family: element-icons; src: url("chrome-extension://moombeodfomdpjnpocobemoiaemednkg/fonts/element-icons.woff") format("woff"), url("chrome-extension://moombeodfomdpjnpocobemoiaemednkg/fonts/element-icons.ttf ") format("truetype"); }
</style></defs><path d="M0 224v576h1024V224z m64 64h896v448H64z m96 86.016v275.968h64v-276z m99.008 0v275.968H320V496l28.992 154.016h40.992L416 496v154.016h58.016v-276H384l-16 131.968-22.016-131.968z m249.984 0v272h76.992c41.632 0 57.28-6.4 70.016-16 12.736-6.4 19.008-22.016 19.008-38.016v-166.016c0-19.232-6.272-35.616-19.008-41.984-16-6.4-22.016-10.016-70.016-10.016z m198.016 3.968v272h57.984s2.752-19.232 6.016-16c6.368 0 32.256 12 44.992 12 16 0 22.4 0.256 32-2.976 12.736-6.4 16-15.36 16-25.024v-160c0-22.368-22.72-38.976-42.016-38.976-19.232 0-37.6 12.608-44 19.008v-60.032zM576 416c12.736 0 26.016 0.256 26.016 12.992v160c0 12.768-16.384 13.024-26.016 13.024z m211.008 32c3.232 0 6.976 3.36 6.976 12.992v136.992c0 6.4-0.608 13.024-6.976 13.024-3.264 0-6.016-3.392-6.016-13.024v-136.96c0-6.4-0.352-13.024 6.016-13.024z" p-id="1823"></path></svg>